<?xml version="1.0" encoding="UTF-8" standalone="no"?>
<!-- Created with Inkscape (http://www.inkscape.org/) -->

<svg
   width="213.42123mm"
   height="211.66667mm"
   viewBox="0 0 213.42123 211.66667"
   version="1.1"
   id="svg1"
   xmlns="http://www.w3.org/2000/svg"
   xmlns:svg="http://www.w3.org/2000/svg">
  <defs
     id="defs1" />
  <g
     id="layer1"
     transform="translate(-173.83125,-109.53751)">
    <g
       id="g241"
       transform="matrix(4.3859488,0,0,4.3859488,-305.68532,-269.07506)">
      <g
         id="g2"
         transform="matrix(0.1889421,0,0,0.1889421,214.21872,90.273274)">
        <path
           d="m -397.4188,135.3439 c -0.9359,-1.4784 -2.115,-3.4656 -2.6203,-4.416 -0.5053,-0.9504 -1.806,-3.2536 -2.8903,-5.1183 -1.0842,-1.8646 -1.9714,-3.8129 -1.9714,-4.3294 0,-0.5165 0.6661,-2.0149 1.4803,-3.3297 0.8141,-1.3148 2.4125,-4.0322 3.552,-6.0386 1.1394,-2.0064 2.2445,-3.927 2.4557,-4.2679 0.2112,-0.3409 0.7954,-1.3778 1.2981,-2.304 0.5028,-0.92624 2.274,-3.9735 3.936,-6.771599 1.6621,-2.7981 3.0219,-5.1711 3.0219,-5.2732 0,-0.1021 0.7178,-1.3552 1.5952,-2.7845 4.9485,-8.0621 6.8528,-11.77 6.8528,-13.343 0,-0.87024 -0.1619,-1.7464 -0.3599,-1.9471 -0.198,-0.2007 -1.3789,-2.1792 -2.6243,-4.3968 -3.4618,-6.1641 -3.9851,-7.0729 -4.3121,-7.488 -0.1664,-0.2112 -0.9485,-1.5936 -1.738,-3.072 -0.7895,-1.4784 -2.4494,-4.3455 -3.6886,-6.3713 -1.2392,-2.0258 -2.2531,-3.7821 -2.2531,-3.9028 0,-0.43415 -6.4895,-11.245 -7.1443,-11.902 -0.6228,-0.62461 -2.2443,-0.672 -22.994,-0.672 -17.277,0 -22.461,0.1085 -22.933,0.48 -0.33543,0.264 -2.1285,3.1584 -3.9845,6.432 -1.856,3.2736 -3.8178,6.6556 -4.3595,7.5155 -0.54167,0.85991 -1.8489,3.0755 -2.9049,4.9236 -5.2477,9.1838 -7.6322,13.14 -8.1822,13.577 -0.45097,0.358 -3.3188,0.48 -11.283,0.48 -10.167,0 -10.715,-0.0368 -11.447,-0.768 -0.97194,-0.97194 -0.96207,-1.4108 0.0692,-3.072 0.45888,-0.7392 1.776,-2.9856 2.9269,-4.992 1.1509,-2.0064 2.3946,-4.1664 2.7637,-4.8 0.3691,-0.6336 1.9703,-3.3984 3.5583,-6.144 1.588,-2.7456 3.7698,-6.5119 4.8485,-8.3696 1.0787,-1.8576 1.9613,-3.4681 1.9613,-3.5788 0,-0.1107 0.5184,-0.95473 1.152,-1.8756 0.6336,-0.9209 1.152,-1.7614 1.152,-1.8677 0,-0.10631 0.49943,-1.0256 1.1098,-2.0428 3.0847,-5.1406 8.6053,-14.696 9.3377,-16.163 0.23988,-0.48026 0.7953,-0.95977 1.2343,-1.0656 0.43899,-0.1058 16.43,-0.14485 35.536,-0.0868 l 34.737,0.10556 1.0501,1.5636 c 0.5775,0.85997 2.0328,3.2792 3.2339,5.376 1.201,2.0968 3.568,6.2316 5.2599,9.1884 1.6919,2.9568 4.0763,7.104 5.2988,9.216 1.2224,2.112 2.722,4.704 3.3323,5.76 0.6103,1.056 1.4609,2.5248 1.8901,3.264 3.4567,5.9526 10.272,17.826 12.123,21.12 1.2459,2.2176 2.4256,4.1962 2.6214,4.3968 0.6786,0.69513 0.35,2.2176 -0.9446,4.3773 -1.5136,2.5251 -6.062,10.354 -7.953,13.69 -1.6566,2.9219 -1.7128,3.0186 -3.8983,6.700999 -1.0032,1.6904 -1.824,3.1803 -1.824,3.3109 0,0.1306 -0.3253,0.69622 -0.723,1.2568 -0.3977,0.56058 -1.0674,1.6241 -1.4883,2.3633 -0.4209,0.7392 -1.5011,2.64 -2.4006,4.224 -0.8995,1.584 -2.3629,4.0896 -3.252,5.568 -0.8891,1.4784 -2.1697,3.6864 -2.8458,4.9066 -0.676,1.2202 -1.7265,3.0346 -2.3344,4.032 -0.6078,0.99738 -2.2712,3.887 -3.6963,6.4214 -5.9186,10.74 -6.0493,9.1104 -10.338,2.304 z m -14.192,-23.989 c -0.6626,-0.73211 -1.7171,-2.5183 -7.0277,-11.903999 l -2.4925,-4.4049 1.6603,-3.0831 c 0.9131,-1.6957 2.708,-4.8975 3.9885,-7.1151 1.2806,-2.2176 2.7578,-4.8497 3.2827,-5.8492 l 0.9545,-1.8172 -0.9558,-1.8112 c -0.5256,-0.99617 -1.7765,-3.1719 -2.7797,-4.835 -1.0032,-1.6631 -1.824,-3.1244 -1.824,-3.2474 0,-0.123 -0.4408,-0.80148 -0.9795,-1.5078 l -0.9796,-1.2842 h -13.822 l -0.94165,1.0161 c -0.51794,0.55884 -0.94168,1.1674 -0.94168,1.3522 0,0.48073 -1.9597,3.4934 -2.6434,4.0637 -0.42612,0.35546 -3.0317,0.48 -10.042,0.48 -8.6839,0 -9.5197,-0.0581 -10.103,-0.70224 -1.0401,-1.1493 -0.73548,-2.363 1.581,-6.2993 3.9266,-6.6723 6.3639,-10.872 9.3076,-16.038 0.90255,-1.584 1.8324,-3.007 2.0664,-3.1621 0.23401,-0.15517 8.5572,-0.28477 18.496,-0.288 13.898,-0.005 18.205,0.10495 18.651,0.47412 0.7666,0.63418 1.1763,1.3005 4.6627,7.584 0.4101,0.7392 0.8816,1.5168 1.0478,1.728 0.3202,0.40694 1.3256,2.1704 3.1135,5.4612 0.5992,1.1028 1.8463,3.2628 2.7714,4.8 3.5374,5.878 6.7871,11.758 6.7871,12.28 0,0.29927 -0.6204,1.5708 -1.3788,2.8255 -0.7583,1.2548 -1.98,3.4046 -2.7148,4.7774 -0.7349,1.3728 -1.8652,3.36 -2.5119,4.416 -0.6467,1.056 -1.9016,3.216 -2.7886,4.8 -4.2001,7.500299 -9.5978,16.770999 -10.116,17.375999 -0.769,0.89651 -2.4789,0.85266 -3.3277,-0.0853 z"
           fill="#054189"
           stroke-width="0.384"
           id="path5-2"
           style="stroke-linecap:square;stroke-miterlimit:10" />
        <path
           d="m -432.7788,96.513901 c -1.0727,1.8825 -2.3163,3.635399 -2.7636,3.895299 -0.4474,0.25981 -2.078,0.43316 -3.6238,0.38518 -1.5457,-0.0479 -4.6982,-0.0736 -7.0056,-0.0571 -2.3073,0.0165 -4.5231,0.0198 -4.924,0.007 -0.4008,-0.0125 -1.5908,4e-5 -2.6443,0.028 -1.0536,0.0279 -4.5782,0.0175 -7.8324,-0.023 -3.2543,-0.0405 -5.9893,-0.0317 -6.0777,0.0197 -0.088,0.0514 -1.5325,0.0562 -3.2091,0.0109 -9.4562,-0.25603 -13.619,-0.0501 -14.982,0.74118 -0.7537,0.43773 -1.4315,1.0195 -1.5063,1.2929 -0.075,0.27342 -1.1978,2.2975 -2.4956,4.498 -3.6073,6.1166 -4.1327,7.0296 -4.3287,7.5233 -0.1,0.2512 -0.9059,1.6279 -1.7915,3.0594 -0.8855,1.4315 -2.5386,4.3198 -3.6734,6.4184 -1.1348,2.0986 -2.1488,3.8654 -2.2534,3.9261 -0.376,0.21838 -6.4938,11.31 -6.7351,12.211 -0.2296,0.85678 0.5401,2.2933 10.915,20.371 8.6387,15.053 11.325,19.514 11.882,19.739 0.3963,0.15942 3.7994,0.26563 7.5625,0.23609 3.763,-0.0297 7.6728,-0.0216 8.6884,0.0178 1.0155,0.0393 3.5879,0.0638 5.7163,0.0542 10.577,-0.0475 15.196,0.0396 15.849,0.29921 0.5355,0.21286 2.0751,2.65 6.0573,9.5888 5.0833,8.8575 5.3258,9.3542 5.0582,10.359 -0.3558,1.3356 -0.7408,1.5478 -2.6949,1.4851 -0.8696,-0.028 -3.4736,-0.0456 -5.7867,-0.0391 -2.3131,0.007 -4.8055,0.009 -5.5388,0.007 -0.7333,-0.003 -3.9282,-0.007 -7.1,-0.0101 -3.1717,-0.002 -7.5244,-0.009 -9.6725,-0.0142 -2.1482,-0.005 -3.9841,0.0357 -4.08,0.0914 -0.096,0.0556 -1.086,0.0286 -2.2003,-0.0602 -1.1144,-0.0888 -2.1014,-0.11768 -2.1935,-0.0642 -0.092,0.0535 -1.1379,0.0807 -2.324,0.0607 -5.9942,-0.10174 -17.03,-0.1049 -18.666,-0.005 -0.5359,0.0326 -1.2289,-0.21011 -1.54,-0.53937 -0.3111,-0.32926 -8.3404,-14.241 -17.843,-30.916 l -17.277,-30.317 0.829,-1.7014 c 0.456,-0.93571 1.8234,-3.4205 3.0388,-5.5216 1.2154,-2.101 3.6127,-6.2431 5.3275,-9.2044 1.7147,-2.9613 4.1141,-7.1247 5.3319,-9.2522 1.2178,-2.1273 2.7127,-4.7376 3.3221,-5.8005 0.6094,-1.0629 1.4561,-2.5428 1.8817,-3.2885 3.4267,-6.0058 10.302,-17.915999 12.229,-21.184999 1.2975,-2.2009 2.4212,-4.2239 2.497,-4.4954 0.2627,-0.94087 1.7456,-1.4204 4.2632,-1.3788 2.9436,0.0486 11.998,0.0731 15.832,0.0429 3.3587,-0.0265 3.4705,-0.0262 7.7523,0.0257 1.9655,0.0238 3.6662,-0.0106 3.7794,-0.0763 0.1131,-0.0657 0.7656,-0.0668 1.4499,-0.002 0.6844,0.0645 1.9402,0.11302 2.7908,0.1079 0.8506,-0.005 3.0369,-0.0201 4.8584,-0.0332 1.8216,-0.0131 4.7232,10e-4 6.448,0.0325 1.7249,0.031 4.2774,0.036 5.6722,0.0113 1.3947,-0.0248 3.4913,-0.0222 4.659,0.006 21.69,1.5611 18.596,0.74116 9.0716,17.434 z m -8.1776,14.834999 c -0.3027,0.94553 -1.3223,2.7627 -6.7949,12.11 l -2.5685,4.3872 -3.5002,0.10432 c -1.9251,0.0574 -5.5954,0.10417 -8.1561,0.10402 -2.5608,-2.3e-4 -5.5789,0.0367 -6.7069,0.0822 l -2.0509,0.0825 -1.0907,1.7438 c -0.5999,0.959 -1.8587,3.1432 -2.7974,4.8538 -0.9387,1.7106 -1.7938,3.1607 -1.9003,3.2226 -0.1065,0.0619 -0.4737,0.7872 -0.8161,1.6118 l -0.6223,1.4994 6.9107,12.042 1.3508,0.30935 c 0.7429,0.17011 1.4818,0.23326 1.6419,0.14026 0.4163,-0.24181 4.0052,-0.0498 4.8409,0.25886 0.521,0.19252 1.9316,2.4 5.437,8.5079 4.3419,7.5657 4.7095,8.3231 4.4431,9.1549 -0.4753,1.4843 -1.6787,1.8294 -6.2458,1.7912 -7.7417,-0.0648 -12.598,-0.0757 -18.544,-0.0417 -1.823,0.0105 -3.5202,-0.0839 -3.7716,-0.20976 -0.2514,-0.12581 -4.5252,-7.312 -9.4974,-15.969 -6.9535,-12.106 -9.0115,-15.913 -8.9149,-16.488 0.1659,-0.98687 0.5381,-1.679 4.2366,-7.877 0.4351,-0.72912 0.8728,-1.531 0.9726,-1.7821 0.1923,-0.48365 1.2168,-2.2466 3.1727,-5.4596 0.6555,-1.0768 1.9026,-3.2498 2.7713,-4.8289 3.3218,-6.0386 6.7889,-11.827 7.2411,-12.09 0.2592,-0.15054 1.6705,-0.24959 3.1364,-0.22002 1.4658,0.0295 3.9385,0.0125 5.4948,-0.0378 1.5563,-0.0503 3.8424,-0.0651 5.0803,-0.0328 1.2378,0.0323 3.7359,0.039 5.5512,0.0151 8.5955,-0.11342 19.323,-0.0742 20.106,0.0735 1.1609,0.21903 1.9779,1.7308 1.59,2.9421 z"
           fill="#e77919"
           stroke-width="0.38515"
           id="path6-7"
           style="stroke-linecap:square;stroke-miterlimit:10" />
        <path
           d="m -424.7888,202.0339 c -0.2641,-0.4763 -0.4434,-0.9956 -0.3986,-1.154 0.045,-0.1584 -0.12,-0.288 -0.3664,-0.288 -0.2464,0 -0.3432,-0.10479 -0.2151,-0.23288 0.1281,-0.12808 -0.096,-0.58625 -0.4987,-1.0182 -0.4024,-0.4319 -0.6402,-0.93313 -0.5285,-1.1138 0.1116,-0.1807 -0.066,-0.43184 -0.3951,-0.55808 -0.329,-0.12624 -0.5025,-0.38422 -0.3857,-0.57329 0.1169,-0.18907 0.019,-0.34376 -0.2169,-0.34376 -0.2361,0 -0.3218,-0.17402 -0.1903,-0.38671 0.1315,-0.21269 -0.03,-0.49 -0.3591,-0.61624 -0.3289,-0.12624 -0.5024,-0.38422 -0.3856,-0.57329 0.1169,-0.18907 0.03,-0.34376 -0.1942,-0.34376 -0.2237,0 -0.4067,-0.22537 -0.4067,-0.50082 0,-0.27545 -0.5511,-1.3554 -1.2247,-2.4 -0.6737,-1.0446 -1.267,-2.1411 -1.3186,-2.4367 -0.052,-0.29565 -0.3211,-0.68181 -0.5992,-0.85812 -0.278,-0.17631 -0.3327,-0.3287 -0.1215,-0.33865 0.2112,-0.01 0.049,-0.2718 -0.3614,-0.58188 -0.41,-0.31009 -0.5929,-0.56379 -0.4066,-0.56379 0.1863,0 0,-0.2537 -0.4066,-0.56379 -0.41,-0.31008 -0.6284,-0.56928 -0.4855,-0.576 0.143,-0.007 -0.3322,-0.99565 -1.056,-2.1976 -0.7237,-1.202 -1.3159,-2.4116 -1.3159,-2.688 0,-0.27643 -0.183,-0.50259 -0.4067,-0.50259 -0.2237,0 -0.3111,-0.15469 -0.1942,-0.34376 0.1168,-0.18907 -0.057,-0.44705 -0.3857,-0.57329 -0.3289,-0.12624 -0.4944,-0.39724 -0.3678,-0.60223 0.1267,-0.20499 -0.078,-0.69581 -0.4556,-1.0907 -0.3773,-0.39491 -0.7387,-0.96281 -0.8031,-1.262 -0.064,-0.2992 -0.3249,-0.7168 -0.5788,-0.928 -0.2539,-0.2112 -0.806,-1.1164 -1.2269,-2.0116 -0.4209,-0.89517 -0.905,-1.6296 -1.0759,-1.632 -0.1709,-0.002 -0.2038,-0.1772 -0.073,-0.3884 0.1305,-0.2112 0.044,-0.384 -0.192,-0.384 -0.2361,0 -0.3225,-0.1728 -0.192,-0.384 0.1305,-0.2112 0.058,-0.384 -0.162,-0.384 -0.2196,0 -0.5046,-0.4195 -0.6333,-0.93221 -0.1287,-0.51272 -0.4886,-1.0299 -0.7997,-1.1493 -0.3111,-0.1194 -0.4581,-0.3911 -0.3267,-0.60379 0.1315,-0.21269 0.046,-0.38671 -0.1903,-0.38671 -0.2361,0 -0.3218,-0.17402 -0.1903,-0.38671 0.1314,-0.21269 -0.03,-0.49 -0.3592,-0.61624 -0.3289,-0.12624 -0.5025,-0.38422 -0.3856,-0.57329 0.1168,-0.18907 0.041,-0.34376 -0.1683,-0.34376 -0.2095,0 -0.4986,-0.3888 -0.6425,-0.864 -0.1439,-0.4752 -0.6265,-1.4659 -1.0725,-2.2015 -0.4459,-0.73561 -0.8486,-1.5949 -0.8947,-1.9095 -0.046,-0.31461 -0.3502,-0.76663 -0.6755,-1.0045 -0.3253,-0.23787 -0.4789,-0.545 -0.3414,-0.68252 0.1375,-0.13751 0.048,-0.25003 -0.198,-0.25003 -0.2464,0 -0.448,-0.2592 -0.448,-0.576 0,-0.3168 -0.1728,-0.576 -0.384,-0.576 -0.2112,0 -0.384,-0.2592 -0.384,-0.576 0,-0.3168 -0.183,-0.576 -0.4066,-0.576 -0.2237,0 -0.2999,-0.1728 -0.1694,-0.384 0.1305,-0.2112 0.054,-0.384 -0.1693,-0.384 -0.2237,0 -0.4067,-0.1652 -0.4067,-0.3671 0,-0.20191 -0.5139,-1.2387 -1.142,-2.304 -0.6281,-1.0653 -1.0169,-1.9422 -0.864,-1.9486 0.1529,-0.006 -0.028,-0.18984 -0.402,-0.4076 -0.3741,-0.21776 -0.592,-0.53852 -0.4843,-0.71281 0.1077,-0.17429 -0.06,-0.52885 -0.3717,-0.78791 -0.3121,-0.25906 -0.4721,-0.62546 -0.3554,-0.81422 0.1166,-0.18876 -0.057,-0.44649 -0.3861,-0.57273 -0.3289,-0.12624 -0.5017,-0.38544 -0.384,-0.576 0.1178,-0.19056 -0.055,-0.44976 -0.384,-0.576 -0.3289,-0.12624 -0.5025,-0.38422 -0.3856,-0.57329 0.1168,-0.18907 0.073,-0.3454 -0.098,-0.3474 -0.1709,-0.002 -0.6518,-0.7796 -1.0687,-1.728 -0.417,-0.9484 -0.8922,-1.7244 -1.056,-1.7244 -0.1639,0 -0.298,-0.3456 -0.298,-0.768 0,-0.4224 -0.136,-0.768 -0.3022,-0.768 -0.1663,0 -0.3284,-0.3456 -0.3602,-0.768 -0.032,-0.4224 0.133,-0.768 0.3663,-0.768 0.2333,0 0.3172,-0.10697 0.1864,-0.23772 -0.1307,-0.13074 0,-0.47634 0.2926,-0.768 0.4249,-0.42487 2.5922,-0.53028 10.903,-0.53028 6.6119,0 10.46,0.1415 10.614,0.39026 0.1326,0.21465 0.4287,0.27435 0.658,0.13267 0.2488,-0.15374 0.3064,-0.0789 0.1428,0.18574 -0.1507,0.24383 -0.081,0.44333 0.1553,0.44333 0.2362,0 0.3218,0.17402 0.1903,0.38671 -0.1314,0.21269 0.03,0.49 0.3592,0.61624 0.329,0.12624 0.5025,0.38422 0.3857,0.57329 -0.1169,0.18907 -0.019,0.34376 0.2168,0.34376 0.2362,0 0.3218,0.17402 0.1903,0.38671 -0.1314,0.21269 0.03,0.49 0.3592,0.61624 0.329,0.12624 0.5025,0.38422 0.3857,0.57329 -0.1169,0.18907 -0.019,0.34376 0.2168,0.34376 0.2362,0 0.3226,0.1728 0.192,0.384 -0.1305,0.2112 -0.089,0.384 0.093,0.384 0.2991,0 1.9673,3.0596 2.0425,3.746 0.017,0.15732 0.2819,0.42626 0.5881,0.59764 0.3062,0.17138 0.4678,0.45567 0.359,0.63177 -0.1089,0.17608 0.071,0.42344 0.4002,0.54968 0.329,0.12624 0.4906,0.40355 0.3592,0.61624 -0.1315,0.21269 -0.046,0.38671 0.1903,0.38671 0.2361,0 0.3264,0.1665 0.2006,0.37 -0.1257,0.20349 0.1089,0.70749 0.5214,1.12 0.4125,0.41251 0.6738,0.82619 0.5807,0.91929 -0.093,0.0931 0.094,0.38786 0.416,0.65502 0.3219,0.26715 0.5852,0.70262 0.5852,0.9677 0,0.26508 0.2573,0.6955 0.5718,0.95649 0.3144,0.26099 0.477,0.62775 0.3613,0.81502 -0.1157,0.18727 -0.06,0.34049 0.1245,0.34049 0.1843,0 0.5723,0.6048 0.8624,1.344 0.29,0.7392 0.6679,1.344 0.8396,1.344 0.1718,0 0.3124,0.2592 0.3124,0.576 0,0.3168 0.183,0.576 0.4066,0.576 0.2237,0 0.2992,0.17402 0.1677,0.38671 -0.1315,0.21269 0.03,0.49 0.3591,0.61624 0.329,0.12624 0.5025,0.38422 0.3857,0.57329 -0.1169,0.18907 -0.019,0.34376 0.2169,0.34376 0.2361,0 0.3291,0.16218 0.2066,0.3604 -0.1225,0.19822 0,0.50062 0.2653,0.672 0.5375,0.34319 2.0134,3.207 1.8977,3.6823 -0.04,0.16427 0.187,0.39838 0.5046,0.52023 0.3175,0.12186 0.4904,0.36232 0.3841,0.53436 -0.1064,0.17204 0.08,0.58594 0.4136,0.91976 0.3338,0.33383 0.465,0.61246 0.2915,0.61917 -0.1735,0.007 0.02,0.26592 0.43,0.576 0.41,0.31009 0.5828,0.56644 0.384,0.56967 -0.1988,0.003 -0.1144,0.16222 0.1875,0.35329 0.302,0.19108 0.5913,0.63559 0.643,0.9878 0.052,0.35222 0.3454,0.92763 0.6527,1.2787 0.5424,0.61967 1.7569,2.8282 1.8797,3.4183 0.033,0.16061 0.246,0.50202 0.4723,0.7587 1.1073,1.256 1.308,1.5807 1.1036,1.7851 -0.2642,0.26415 2.252,2.7425 2.6678,2.6277 0.1584,-0.0437 0.288,0.0501 0.2879,0.20848 0,0.1584 9.9713,0.288 22.158,0.288 21.811,0 22.171,-0.0123 22.944,-0.78545 0.4321,-0.432 0.8288,-0.9072 0.8816,-1.056 0.053,-0.1488 0.4479,-0.62245 0.878,-1.0526 0.4301,-0.43011 0.6791,-0.94851 0.5533,-1.152 -0.1258,-0.2035 -0.046,-0.37 0.178,-0.37 0.2237,0 0.4067,-0.15917 0.4067,-0.35371 0,-0.19455 0.8561,-1.8362 1.9025,-3.648 1.0464,-1.8119 1.7855,-3.2943 1.6425,-3.2943 -0.1429,0 0.127,-0.27102 0.5999,-0.60227 0.473,-0.33125 0.7604,-0.76325 0.6388,-0.96 -0.1215,-0.19675 -0.028,-0.35773 0.2083,-0.35773 0.2361,0 0.3225,-0.1728 0.192,-0.384 -0.1305,-0.2112 -0.073,-0.384 0.1277,-0.384 0.2007,0 0.4734,-0.432 0.6059,-0.96 0.1326,-0.528 0.4105,-0.96 0.6177,-0.96 0.2072,0 0.3767,-0.1652 0.3767,-0.3671 0,-0.20191 0.5049,-1.2234 1.122,-2.27 0.6171,-1.0466 1.0243,-2.0005 0.905,-2.1199 -0.1193,-0.11932 0.066,-0.32553 0.4118,-0.45823 0.3458,-0.1327 0.5371,-0.38966 0.425,-0.57103 -0.1121,-0.18137 0.1337,-0.66726 0.5462,-1.0798 0.4125,-0.41251 0.6492,-0.85081 0.526,-0.97401 -0.1232,-0.1232 0.01,-0.224 0.288,-0.224 0.2816,0 0.3952,-0.11678 0.2525,-0.25951 -0.1428,-0.14273 0.1178,-0.66113 0.5789,-1.152 0.4612,-0.49087 0.723,-0.89249 0.582,-0.89249 -0.141,0 0.529,-1.2253 1.489,-2.723 0.9599,-1.4976 1.5204,-2.608 1.2455,-2.4675 -0.275,0.14049 -0.2002,0.01 0.1661,-0.29101 0.3663,-0.30055 0.5535,-0.65896 0.416,-0.79648 -0.1375,-0.13751 -0.038,-0.25003 0.2207,-0.25003 0.2588,0 0.3631,-0.17402 0.2316,-0.38671 -0.1315,-0.21269 0.03,-0.49 0.3591,-0.61624 0.329,-0.12624 0.5138,-0.36611 0.4106,-0.53305 -0.1032,-0.16694 0.082,-0.40681 0.4105,-0.53305 0.329,-0.12624 0.4906,-0.40355 0.3592,-0.61624 -0.1315,-0.21269 -0.056,-0.38671 0.1676,-0.38671 0.2237,0 0.4067,-0.24932 0.4067,-0.55405 0,-0.30473 0.3763,-1.1918 0.8361,-1.9712 l 0.8362,-1.4172 -0.9322,-1.762 c -0.5126,-0.96911 -0.8873,-1.9013 -0.8326,-2.0714 0.055,-0.17018 -0.1602,-0.40912 -0.4778,-0.53097 -0.3175,-0.12186 -0.481,-0.37747 -0.3632,-0.56803 0.1178,-0.19056 -0.055,-0.44976 -0.384,-0.576 -0.329,-0.12624 -0.5025,-0.38422 -0.3856,-0.57329 0.1168,-0.18907 0.019,-0.34376 -0.2169,-0.34376 -0.2361,0 -0.3225,-0.1728 -0.192,-0.384 0.1305,-0.2112 0.054,-0.384 -0.1694,-0.384 -0.2236,0 -0.4066,-0.2592 -0.4066,-0.576 0,-0.3168 -0.183,-0.576 -0.4067,-0.576 -0.2237,0 -0.3072,-0.16086 -0.1857,-0.35747 0.1215,-0.1966 0.062,-0.45581 -0.1327,-0.57601 -0.4746,-0.29329 -2.9085,-4.5581 -2.8093,-4.9225 0.043,-0.1584 -0.1046,-0.288 -0.3283,-0.288 -0.2237,0 -0.3064,-0.16218 -0.1839,-0.3604 0.1225,-0.19822 -0.083,-0.53856 -0.4574,-0.75632 -0.374,-0.21776 -0.5407,-0.40118 -0.3703,-0.4076 0.4095,-0.0154 -0.9565,-2.3157 -1.3752,-2.3157 -0.1781,0 -0.217,-0.1728 -0.087,-0.384 0.1305,-0.2112 0.086,-0.384 -0.098,-0.384 -0.2814,0 -1.4307,-2.0146 -1.6992,-2.9784 -0.044,-0.15707 -0.3692,-0.59654 -0.7233,-0.97659 -0.3541,-0.38005 -0.9516,-1.3736 -1.3278,-2.208 -0.3763,-0.83435 -0.8409,-1.517 -1.0324,-1.517 -0.1916,0 -0.2528,-0.15469 -0.1359,-0.34376 0.1168,-0.18907 -0.057,-0.44705 -0.3857,-0.57329 -0.329,-0.12624 -0.5003,-0.38778 -0.3808,-0.5812 0.1195,-0.19341 -0.3879,-1.2707 -1.1276,-2.394 -0.7398,-1.1233 -1.345,-2.3955 -1.345,-2.8273 0,-0.4318 0.6769,-1.8145 1.5043,-3.0727 0.8273,-1.2582 1.4219,-2.4209 1.3213,-2.5838 -0.1006,-0.16282 0.01,-0.29604 0.2464,-0.29604 0.2361,0 0.3279,-0.16413 0.2039,-0.36473 -0.124,-0.20061 0.1398,-0.56021 0.5862,-0.79912 0.4464,-0.2389 0.7101,-0.53595 0.5859,-0.6601 -0.1241,-0.12415 0.077,-0.571849 0.4471,-0.994889 0.4983,-0.56963 0.5234,-0.69485 0.097,-0.48269 -0.4718,0.23464 -0.4678,0.19448 0.022,-0.22199 0.329,-0.27967 0.9907,-1.2861 1.4704,-2.2365 0.4798,-0.9504 1.2877,-2.3108 1.7954,-3.0232 0.5077,-0.7124 0.8355,-1.4369 0.7285,-1.6101 -0.2221,-0.35927 2.3434,-3.0468 2.9083,-3.0468 0.2042,0 0.3713,0.2016 0.3713,0.448 0,0.2464 0.1069,0.34103 0.2377,0.21029 0.1307,-0.13075 0.4539,-0.0215 0.7182,0.24277 0.4621,0.46207 1.6765,2.6193 1.8143,3.2229 0.037,0.16061 0.3728,0.62059 0.747,1.0222 0.3741,0.40159 0.5896,0.87679 0.4788,1.056 -0.1107,0.17922 0.01,0.32585 0.2693,0.32585 0.2589,0 0.3637,0.10697 0.233,0.23772 -0.1308,0.13074 -0.03,0.47034 0.2239,0.75467 1.1422,1.2788 1.4335,1.6956 1.1854,1.6956 -0.1467,0 0.046,0.3456 0.4284,0.768 0.3822,0.4224 0.573,0.768 0.4239,0.768 -0.149,0 0.1453,0.561599 0.6541,1.247999 0.5088,0.6864 1.1646,1.8096 1.4573,2.496 0.2927,0.6864 0.6729,1.248 0.8451,1.248 0.1721,0 0.2126,0.16218 0.09,0.3604 -0.1225,0.19822 0.083,0.53856 0.4573,0.75632 0.374,0.21776 0.5204,0.40118 0.3251,0.4076 -0.1952,0.006 0.051,0.44368 0.547,0.97168 0.496,0.528 0.7523,0.96 0.5695,0.96 -0.1828,0 0,0.27201 0.4131,0.60448 0.4099,0.33246 0.4862,0.47555 0.1694,0.31799 -0.4752,-0.23632 -0.4679,-0.15726 0.041,0.45152 1.0414,1.2448 3.3652,5.4594 3.1363,5.6882 -0.1186,0.11864 0.067,0.32429 0.4131,0.45699 0.3458,0.1327 0.5324,0.39719 0.4146,0.58775 -0.1178,0.19056 0.055,0.44976 0.384,0.576 0.329,0.12624 0.5146,0.36464 0.4126,0.52978 -0.1021,0.16514 0.07,0.51221 0.3819,0.77127 0.3122,0.25906 0.4729,0.62424 0.3572,0.81151 -0.1158,0.18727 -0.047,0.34049 0.1524,0.34049 0.1996,0 0.6661,0.648 1.0367,1.44 0.3705,0.792 0.9899,1.8915 1.3764,2.4434 0.3865,0.55183 0.5925,1.1134 0.458,1.248 -0.1346,0.13456 -0.033,0.24465 0.226,0.24465 0.2589,0 0.3639,0.1728 0.2333,0.384 -0.1305,0.2112 -0.054,0.384 0.1694,0.384 0.2236,0 0.4066,0.24071 0.4066,0.53492 0,0.2942 0.2702,0.63858 0.6004,0.76528 0.3301,0.12671 0.4928,0.4044 0.3613,0.61709 -0.1316,0.21269 -0.046,0.38671 0.1902,0.38671 0.2361,0 0.3385,0.14701 0.2274,0.32669 -0.111,0.17968 0.2393,0.91408 0.7785,1.632 0.923,1.2287 1.77,2.8507 1.842,3.5273 0.018,0.16611 0.2914,0.46586 0.6082,0.66613 0.3168,0.20026 0.4032,0.37201 0.192,0.38167 -0.2112,0.01 -0.078,0.19572 0.2961,0.41348 0.374,0.21776 0.592,0.53852 0.4842,0.71281 -0.1077,0.17429 0.06,0.52885 0.3717,0.78791 0.3122,0.25906 0.4729,0.62424 0.3571,0.81151 -0.1157,0.18727 -0.028,0.34049 0.1963,0.34049 0.2236,0 0.4066,0.25061 0.4066,0.55692 0,0.3063 0.3024,0.73305 0.672,0.94832 0.3696,0.21528 0.4992,0.39931 0.288,0.40896 -0.2112,0.01 -0.1248,0.18141 0.192,0.38167 0.7272,0.45972 0.8051,3.8998 0.094,4.1369 -0.2653,0.0884 -0.3847,0.31884 -0.2653,0.512 0.1194,0.19316 0.024,0.3512 -0.2123,0.3512 -0.2361,0 -0.3218,0.17402 -0.1903,0.38671 0.1314,0.21269 -0.031,0.49038 -0.3614,0.61709 -0.3302,0.1267 -0.6003,0.47108 -0.6003,0.76528 0,0.29421 -0.183,0.53492 -0.4067,0.53492 -0.2236,0 -0.2998,0.1728 -0.1693,0.384 0.1305,0.2112 0.044,0.384 -0.192,0.384 -0.2361,0 -0.3225,0.1728 -0.192,0.384 0.1305,0.2112 0.044,0.384 -0.192,0.384 -0.2361,0 -0.3225,0.1728 -0.192,0.384 0.1305,0.2112 0.057,0.384 -0.1642,0.384 -0.2208,0 -0.6584,0.61482 -0.9724,1.3663 -0.3139,0.75145 -0.9328,1.8746 -1.3754,2.496 -0.4424,0.62134 -0.663,1.1324 -0.4903,1.1356 0.1728,0.003 0.087,0.15013 -0.1913,0.32644 -0.2781,0.17631 -0.5457,0.59392 -0.5947,0.92802 -0.049,0.33411 -0.55,1.1637 -1.1133,1.8436 -0.5632,0.67989 -0.9446,1.3647 -0.8475,1.5219 0.097,0.15713 -0.093,0.38898 -0.4215,0.51522 -0.329,0.12624 -0.4906,0.40355 -0.3592,0.61624 0.1315,0.21269 0.099,0.38736 -0.072,0.38815 -0.1708,7.7e-4 -0.6302,0.77839 -1.0207,1.728 -0.3905,0.94961 -0.8759,1.7266 -1.0787,1.7266 -0.2027,0 -0.273,0.15469 -0.1561,0.34376 0.1168,0.18907 -0.071,0.45234 -0.4163,0.58504 -0.3458,0.1327 -0.5173,0.35279 -0.381,0.48908 0.1363,0.13629 -0.055,0.59392 -0.425,1.017 -0.498,0.56929 -0.5232,0.69452 -0.097,0.48191 0.3168,-0.15799 0.2214,0.0283 -0.212,0.41399 -0.4334,0.3857 -0.834,0.87406 -0.8901,1.0853 -0.2052,0.77174 -3.2726,6.1478 -3.579,6.2728 -0.1736,0.0708 -0.2173,0.28806 -0.097,0.48271 0.1203,0.19465 -0.05,0.4572 -0.3794,0.58344 -0.329,0.12624 -0.5025,0.38422 -0.3857,0.57329 0.1169,0.18907 0.019,0.34376 -0.2169,0.34376 -0.2361,0 -0.3225,0.1728 -0.192,0.384 0.1306,0.2112 0.044,0.384 -0.192,0.384 -0.2361,0 -0.3337,0.15469 -0.2168,0.34376 0.1168,0.18907 -0.057,0.44705 -0.3857,0.57329 -0.329,0.12624 -0.498,0.39161 -0.3755,0.5897 0.1224,0.1981 0.047,0.46843 -0.1666,0.60072 -0.2141,0.1323 -0.8497,1.181 -1.4126,2.3305 -0.5629,1.1495 -1.1783,2.09 -1.3677,2.09 -0.1894,0 -0.2376,0.1728 -0.1071,0.384 0.1306,0.2112 0.044,0.384 -0.192,0.384 -0.2361,0 -0.3225,0.1728 -0.192,0.384 0.1306,0.2112 0.044,0.384 -0.192,0.384 -0.2361,0 -0.3217,0.17402 -0.1903,0.38671 0.1315,0.21269 -0.016,0.4844 -0.3267,0.60379 -0.3111,0.11939 -0.6709,0.63657 -0.7996,1.1493 -0.1287,0.51271 -0.4137,0.93221 -0.6333,0.93221 -0.2197,0 -0.2926,0.1728 -0.1621,0.384 0.1306,0.2112 0.044,0.384 -0.192,0.384 -0.2361,0 -0.3298,0.16086 -0.2084,0.35747 0.1215,0.1966 0.043,0.46753 -0.1748,0.60205 -0.2176,0.13452 -0.7625,0.96727 -1.2107,1.8505 -0.4482,0.88327 -1.2245,2.0958 -1.7251,2.6945 -0.5006,0.59869 -0.8123,1.2467 -0.6929,1.44 0.1195,0.19332 0.024,0.35149 -0.2121,0.35149 -0.2361,0 -0.3386,0.14663 -0.2279,0.32585 0.1107,0.17921 -0.095,0.65441 -0.4573,1.056 -0.3623,0.40158 -0.9177,1.2486 -1.2341,1.8822 -0.3165,0.6336 -0.6621,1.2384 -0.768,1.344 -0.106,0.1056 -0.3843,0.5376 -0.6185,0.96 -0.4204,0.75824 -0.8752,0.76924 -35.793,0.866 l -35.368,0.098 z m 17.294,-28.693 c -0.4986,-0.41538 -0.7469,-0.76098 -0.5516,-0.768 0.1952,-0.007 -0.064,-0.47264 -0.576,-1.0347 -0.5121,-0.56206 -0.6718,-0.87781 -0.355,-0.70168 0.3168,0.17613 0.1035,-0.16247 -0.474,-0.75245 -0.5775,-0.58998 -0.9624,-1.2143 -0.8555,-1.3874 0.107,-0.1731 -0.1875,-0.67064 -0.6544,-1.1056 -0.4669,-0.43496 -0.6867,-0.79354 -0.4885,-0.79677 0.2039,-0.003 0.1937,-0.12836 -0.023,-0.288 -0.2112,-0.15517 -0.7985,-1.0597 -1.3051,-2.0101 -0.5065,-0.9504 -1.1422,-1.9872 -1.4126,-2.304 -0.2703,-0.3168 -0.5025,-0.7488 -0.5158,-0.96 -0.013,-0.2112 -0.2706,-0.6718 -0.5718,-1.0235 -0.3012,-0.35176 -0.4466,-0.74056 -0.3232,-0.864 0.1235,-0.12346 0.013,-0.22446 -0.2462,-0.22446 -0.2588,0 -0.3631,-0.17402 -0.2316,-0.38671 0.1314,-0.21269 -0.03,-0.49 -0.3592,-0.61624 -0.3289,-0.12624 -0.5025,-0.38422 -0.3856,-0.57329 0.1168,-0.18907 0.019,-0.34376 -0.2169,-0.34376 -0.2361,0 -0.3225,-0.1728 -0.192,-0.384 0.1305,-0.2112 0.082,-0.384 -0.1077,-0.384 -0.3704,0 -1.4144,-1.9224 -1.3033,-2.4 0.037,-0.1584 -0.116,-0.288 -0.3396,-0.288 -0.2237,0 -0.2999,-0.1728 -0.1694,-0.384 0.1305,-0.2112 0.025,-0.384 -0.2333,-0.384 -0.2589,0 -0.3736,-0.0971 -0.255,-0.2157 0.1186,-0.11863 -0.1949,-0.65878 -0.6968,-1.2003 -0.5019,-0.54152 -0.8191,-1.1357 -0.705,-1.3203 0.1141,-0.1846 0.014,-0.33569 -0.2219,-0.33569 -0.2361,0 -0.3218,-0.17402 -0.1903,-0.38671 0.1314,-0.21269 -0.03,-0.49 -0.3592,-0.61624 -0.3289,-0.12624 -0.50246,-0.38422 -0.3856,-0.57329 0.1168,-0.18907 0.05,-0.34376 -0.14916,-0.34376 -0.1988,0 -0.8466,-0.9936 -1.4393,-2.208 -0.5927,-1.2144 -1.3058,-2.4379 -1.5846,-2.719 -0.2788,-0.28102 -0.4087,-0.66982 -0.2887,-0.864 0.12,-0.19417 0.035,-0.35304 -0.1884,-0.35304 -0.2237,0 -0.4067,-0.2592 -0.4067,-0.576 0,-0.3168 -0.183,-0.576 -0.4066,-0.576 -0.2237,0 -0.3091,-0.15804 -0.1897,-0.3512 0.1194,-0.19316 0,-0.43921 -0.2653,-0.54677 -0.3823,-0.15498 -0.3786,-0.26869 0.018,-0.54799 0.2751,-0.19383 0.4479,-0.59578 0.384,-0.89323 -0.096,-0.44787 1.4674,-0.58427 9.0997,-0.79375 9.1618,-0.25144 11.883,-0.14256 11.51,0.46051 -0.1072,0.17345 -0.036,0.41371 0.1587,0.53391 0.4586,0.28342 2.8506,4.4632 2.9759,5.2 0.053,0.31102 0.398,0.78622 0.767,1.056 0.3689,0.26979 0.5082,0.49577 0.3094,0.5022 -0.1988,0.006 -0.055,0.18984 0.3187,0.4076 0.374,0.21776 0.5798,0.5581 0.4573,0.75632 -0.1225,0.19822 -0.03,0.3604 0.2066,0.3604 0.2361,0 0.3317,0.15804 0.2123,0.3512 -0.1194,0.19316 -0.078,0.40916 0.091,0.48 0.2977,0.12441 3.5365,5.5734 3.5365,5.95 0,0.10213 0.2469,0.43255 0.5486,0.73427 0.4357,0.43572 2.0036,0.54857 7.6212,0.54857 6.354,0 7.1567,-0.0729 7.8995,-0.71704 0.4547,-0.39438 0.8267,-0.91278 0.8267,-1.152 0,-0.23923 0.1381,-0.43496 0.3069,-0.43496 0.1687,0 0.5107,-0.5616 0.7599,-1.248 0.2492,-0.6864 1.0561,-2.162 1.7931,-3.2792 0.737,-1.1172 1.1294,-1.9097 0.8721,-1.7612 -0.2574,0.14851 0.017,-0.19101 0.6096,-0.75449 0.5927,-0.56347 0.9706,-1.1978 0.8397,-1.4095 -0.1309,-0.2117 0.01,-0.47946 0.309,-0.59489 0.7186,-0.27579 0.1443,-3.6414 -0.7023,-4.1152 -0.3191,-0.17858 -0.4792,-0.48809 -0.3557,-0.6878 0.1234,-0.19971 -0.035,-0.46259 -0.3517,-0.58418 -0.3169,-0.12159 -0.4827,-0.46451 -0.3685,-0.76205 0.1142,-0.29755 -0.07,-0.64733 -0.4082,-0.77731 -0.6653,-0.25526 -0.8998,-2.8422 -0.2578,-2.8422 0.3113,0 0.9118,-1.233 0.967,-1.9852 0.01,-0.14148 0.3937,-0.68829 0.8518,-1.2151 0.4581,-0.52681 0.7317,-1.0591 0.608,-1.1828 -0.1237,-0.12367 -0.013,-0.22487 0.2458,-0.22487 0.2588,0 0.3638,-0.1728 0.2333,-0.384 -0.1305,-0.2112 -0.054,-0.384 0.1694,-0.384 0.2236,0 0.4066,-0.2592 0.4066,-0.576 0,-0.3168 0.1728,-0.576 0.384,-0.576 0.2112,0 0.3485,-0.1296 0.3051,-0.288 -0.1111,-0.40491 1.2498,-2.9176 1.7645,-3.2581 0.2345,-0.15517 0.2638,-0.28477 0.065,-0.288 -0.1988,-0.003 -0.026,-0.27789 0.384,-0.61036 0.4099,-0.33246 0.4862,-0.47739 0.1694,-0.32208 -0.3168,0.15532 -0.1872,-0.1454 0.288,-0.66827 0.4752,-0.52287 0.864,-1.1555 0.864,-1.4059 0,-0.2504 0.183,-0.45525 0.4066,-0.45525 0.2237,0 0.3189,-0.14198 0.2117,-0.3155 -0.1072,-0.17353 0.1561,-0.61611 0.5852,-0.98352 1.2284,-1.0518 2.9177,-0.48868 3.7157,1.2386 0.3568,0.77242 0.8216,1.5314 1.0328,1.6865 0.256,0.18808 0.256,0.28797 0,0.29968 -0.2112,0.01 -0.078,0.19572 0.296,0.41348 0.3741,0.21776 0.5799,0.5581 0.4574,0.75632 -0.1225,0.19822 -0.03,0.3604 0.2066,0.3604 0.2361,0 0.3225,0.1728 0.192,0.384 -0.1305,0.2112 -0.044,0.384 0.192,0.384 0.2361,0 0.3291,0.16218 0.2066,0.3604 -0.1225,0.19822 0.083,0.53856 0.4573,0.75632 0.374,0.21776 0.5073,0.40502 0.2961,0.41614 -0.2112,0.0111 0.048,0.37697 0.576,0.813 0.528,0.43603 0.7008,0.66169 0.384,0.50145 -0.4793,-0.24238 -0.4732,-0.16734 0.036,0.44668 0.8872,1.0691 3.2317,5.2952 3.1257,5.634 -0.05,0.1584 0.093,0.288 0.3165,0.288 0.2237,0 0.2992,0.17402 0.1677,0.38671 -0.1315,0.21269 0.03,0.49 0.3591,0.61624 0.329,0.12624 0.5025,0.38422 0.3857,0.57329 -0.1169,0.18907 -0.019,0.34376 0.2169,0.34376 0.2361,0 0.3337,0.15469 0.2169,0.34376 -0.1169,0.18907 0.057,0.44705 0.3856,0.57329 0.329,0.12624 0.5018,0.38544 0.384,0.576 -0.1178,0.19056 0.044,0.44556 0.3597,0.56666 0.3156,0.1211 0.5738,0.47493 0.5738,0.78629 0,0.31136 0.3578,1.1726 0.7952,1.9139 0.9775,1.6569 0.8695,2.6404 -0.5212,4.7441 -0.5934,0.8976 -0.9512,1.632 -0.7951,1.632 0.1561,0 -0.052,0.27201 -0.4615,0.60448 -0.41,0.33246 -0.4862,0.49244 -0.1694,0.35552 0.3168,-0.13692 0.2405,0.0231 -0.1694,0.35552 -0.41,0.33247 -0.6277,0.60448 -0.4838,0.60448 0.1439,0 -0.039,0.3512 -0.4066,0.78045 -0.3675,0.42925 -0.644,0.90445 -0.6144,1.056 0.03,0.15155 -0.2388,0.70755 -0.5963,1.2356 -0.3575,0.52805 -1.0726,1.7808 -1.5891,2.784 -0.5165,1.0032 -1.0792,1.824 -1.2504,1.824 -0.1713,0 -0.2046,0.1728 -0.074,0.384 0.1305,0.2112 0.044,0.384 -0.192,0.384 -0.2362,0 -0.3338,0.15469 -0.2169,0.34376 0.1168,0.18907 -0.057,0.44705 -0.3857,0.57329 -0.3289,0.12624 -0.5017,0.38544 -0.384,0.576 0.1178,0.19056 -0.069,0.45505 -0.4146,0.58775 -0.3458,0.1327 -0.5173,0.35279 -0.3809,0.48908 0.1362,0.13629 -0.055,0.58236 -0.4251,0.99127 -0.37,0.40891 -0.6477,0.85494 -0.6169,0.99117 0.074,0.32569 -1.6883,3.3748 -2.8516,4.9351 -0.505,0.67728 -0.806,1.4129 -0.6689,1.6347 0.1371,0.2218 -0.021,0.50697 -0.3511,0.63368 -0.3302,0.1267 -0.6003,0.47108 -0.6003,0.76528 0,0.29421 -0.2016,0.53492 -0.448,0.53492 -0.2464,0 -0.3411,0.10697 -0.2103,0.23772 0.1307,0.13074 -0.015,0.49027 -0.3235,0.79895 -0.3087,0.30869 -0.4631,0.72011 -0.3431,0.91429 0.12,0.19417 0.035,0.35304 -0.1885,0.35304 -0.2236,0 -0.4066,0.19695 -0.4066,0.43767 0,1.3872 -0.922,1.4576 -19.254,1.4701 -17.255,0.0118 -17.943,-0.0154 -18.816,-0.74301 z"
           fill="#65b540"
           stroke-width="0.384"
           id="path8-9"
           style="stroke-linecap:square;stroke-miterlimit:10" />
      </g>
      <path
         d="m 124.50476,129.17508 h -4.41091 v 0.34495 h 0.13211 c 0.41834,0.007 0.55778,0.0294 0.6165,0.10275 0.044,0.066 0.044,0.0807 0.044,0.45504 v 3.49349 c 0,0.37431 0,0.38899 -0.044,0.45504 -0.0587,0.0734 -0.19816,0.10275 -0.6165,0.10275 h -0.13211 v 0.34494 h 4.50632 l 0.14678,-1.95958 h -0.32292 c -0.2789,1.30639 -0.57981,1.58528 -1.70272,1.61464 h -0.48439 c -0.44036,-0.0147 -0.55045,-0.0881 -0.52843,-0.35229 v -1.87151 h 0.14679 c 0.75594,-0.0294 1.0275,0.24219 1.05685,1.05685 h 0.34495 v -2.40728 h -0.34495 c -0.044,0.71925 -0.33026,1.00548 -1.0275,1.00548 h -0.17614 v -1.67336 c -0.007,-0.30825 0.0661,-0.35962 0.46238,-0.36696 h 0.38164 c 1.20364,-0.007 1.50455,0.25688 1.73941,1.52657 h 0.31559 z m 5.02585,-0.044 h -0.27155 l -0.29357,0.44036 c -0.35229,-0.33027 -0.81466,-0.50641 -1.33575,-0.50641 -0.96879,0 -1.6073,0.60916 -1.6073,1.5339 0,0.79999 0.39632,1.19631 1.47519,1.4752 l 0.69723,0.17614 c 0.54311,0.13945 0.59449,0.15413 0.74861,0.27156 0.22018,0.1688 0.33761,0.411 0.33761,0.69723 0,0.29357 -0.11009,0.53577 -0.33027,0.74127 -0.2422,0.2055 -0.48439,0.28623 -0.88805,0.28623 -0.54311,0 -0.93209,-0.16881 -1.27704,-0.55045 -0.30825,-0.33761 -0.46237,-0.68989 -0.57246,-1.25502 h -0.31559 l 0.0294,2.0917 h 0.28623 l 0.33027,-0.49907 c 0.49173,0.40366 0.89539,0.55044 1.54124,0.55044 1.07888,0 1.76877,-0.63117 1.76877,-1.61464 0,-0.46237 -0.14678,-0.84401 -0.44036,-1.12291 -0.19816,-0.19082 -0.48439,-0.31559 -1.07153,-0.46237 l -0.7853,-0.19816 c -0.6532,-0.16881 -0.96145,-0.45504 -0.96145,-0.90273 0,-0.51375 0.41834,-0.86604 1.04218,-0.86604 0.51375,0 0.93209,0.22018 1.22566,0.63852 0.21284,0.30091 0.35228,0.60916 0.44036,0.98346 h 0.31558 z m 1.16539,0.38898 h 0.14678 c 0.41834,0.007 0.55779,0.0294 0.6165,0.10275 0.044,0.066 0.044,0.0881 0.044,0.45504 v 3.49349 c 0,0.36697 0,0.38899 -0.044,0.45504 -0.0587,0.0734 -0.19816,0.10275 -0.6165,0.10275 H 130.696 v 0.34494 h 2.4293 v -0.34494 h -0.14678 c -0.411,0 -0.55045,-0.022 -0.60917,-0.10275 -0.044,-0.0661 -0.044,-0.0807 -0.044,-0.45504 v -3.49349 c 0,-0.37431 0,-0.38899 0.044,-0.45504 0.0587,-0.0734 0.19083,-0.0954 0.60917,-0.10275 h 0.14678 v -0.34495 h -2.4293 z m 5.96527,-0.4477 h -0.30825 l -1.68803,4.2788 c -0.19816,0.57247 -0.38898,0.74861 -0.80732,0.77797 h -0.0294 v 0.34494 h 1.94491 v -0.34494 h -0.14679 c -0.39632,0 -0.59448,-0.13945 -0.59448,-0.41834 0,-0.0954 0.022,-0.18348 0.0661,-0.30825 l 0.24219,-0.64586 h 1.94491 l 0.39632,0.98347 c 0.044,0.11743 0.0587,0.16146 0.0587,0.19816 0,0.11743 -0.18349,0.19082 -0.45504,0.19082 h -0.30825 v 0.34494 h 2.27518 v -0.34494 h -0.10275 c -0.38164,-0.007 -0.4477,-0.0514 -0.6165,-0.46972 z m -0.35962,1.20365 0.82934,2.08435 h -1.644 z m 4.97448,1.84216 h 0.82934 c 0.66053,0 1.00548,-0.0514 1.30639,-0.19083 0.51375,-0.24953 0.80732,-0.71924 0.80732,-1.29905 0,-0.55778 -0.25688,-0.98346 -0.74127,-1.22566 -0.28623,-0.14678 -0.74127,-0.22752 -1.24768,-0.22752 h -2.56874 v 0.34495 h 0.1321 c 0.41834,0.007 0.55779,0.0294 0.6165,0.10275 0.044,0.066 0.044,0.0807 0.044,0.45504 v 3.49349 c 0,0.37431 0,0.38899 -0.044,0.45504 -0.0587,0.0734 -0.19816,0.10275 -0.6165,0.10275 h -0.1321 v 0.34494 h 2.46599 v -0.34497 h -0.19082 c -0.41834,0 -0.55778,-0.0294 -0.6165,-0.10275 -0.044,-0.0661 -0.044,-0.0807 -0.044,-0.45504 z m 0,-0.34495 v -1.87886 c 0,-0.3376 0.0367,-0.3743 0.44769,-0.3743 h 0.46972 c 0.76328,0 1.12291,0.35963 1.12291,1.13759 0,0.75594 -0.37431,1.11557 -1.15227,1.11557 z m 3.5213,-2.25316 h 0.14678 c 0.41834,0.007 0.55779,0.0294 0.6165,0.10275 0.044,0.066 0.044,0.0881 0.044,0.45504 v 3.49349 c 0,0.36697 0,0.38899 -0.044,0.45504 -0.0587,0.0734 -0.19816,0.10275 -0.6165,0.10275 h -0.14678 v 0.34494 h 2.4293 v -0.34494 h -0.14679 c -0.411,0 -0.55044,-0.022 -0.60916,-0.10275 -0.044,-0.0661 -0.044,-0.0807 -0.044,-0.45504 v -3.49349 c 0,-0.37431 0,-0.38899 0.044,-0.45504 0.0587,-0.0734 0.19082,-0.0954 0.60916,-0.10275 h 0.14679 v -0.34495 h -2.4293 z"
         id="text2"
         style="font-size:7.33928px;line-height:1.2;font-family:C059;-inkscape-font-specification:'C059, ';letter-spacing:0.27px;fill:#054189;stroke-width:1.65134;stroke-linejoin:bevel"
         aria-label="ESIAPI" />
      <path
         d="m 109.33018,109.95309 0.15036,2.80063 0.21902,-0.0117 -0.005,-0.0839 c -0.01,-0.26587 -3.2e-4,-0.35516 0.0442,-0.39494 0.0405,-0.0302 0.0498,-0.0307 0.28738,-0.0437 l 2.21814,-0.11909 c 0.23766,-0.0128 0.24698,-0.0133 0.29042,0.0125 0.0486,0.0348 0.072,0.12231 0.0863,0.38792 l 0.005,0.0839 0.21903,-0.0117 -0.15361,-2.86122 -1.24921,-0.0264 0.011,0.20504 c 0.83898,0.13255 1.02631,0.31411 1.08323,1.02607 l 0.0165,0.30757 c 0.006,0.28008 -0.0371,0.35249 -0.20566,0.34751 l -1.18829,0.0638 -0.005,-0.0932 c -0.0444,-0.47898 0.11875,-0.66066 0.63501,-0.70707 l -0.0117,-0.21902 -1.52846,0.0821 0.0117,0.21902 c 0.45817,0.003 0.64967,0.17543 0.67344,0.61812 l 0.006,0.11187 -1.06247,0.057 c -0.19548,0.0152 -0.23059,-0.0297 -0.24877,-0.28107 l -0.013,-0.24232 c -0.0457,-0.76397 0.1118,-0.96405 0.90997,-1.15645 l -0.0107,-0.20038 z m 1.33628,-2.67956 -0.0149,0.16265 0.15493,0.15012 c -0.14549,0.15536 -0.2166,0.31754 -0.23794,0.54989 -0.0375,0.40894 0.20262,0.70279 0.61157,0.74034 0.18123,0.0166 0.34013,-0.0297 0.44246,-0.12339 0.1074,-0.0979 0.16369,-0.20055 0.25434,-0.4734 l 0.0784,-0.24118 c 0.12199,-0.35902 0.22688,-0.48061 0.41277,-0.46355 0.21842,0.0201 0.35428,0.22467 0.32954,0.4942 -0.0362,0.395 -0.3128,0.6508 -0.78775,0.71967 l -0.0171,0.18589 0.87832,0.0806 0.0149,-0.16265 -0.17561,-0.18013 c 0.17085,-0.17646 0.2644,-0.37876 0.28615,-0.61576 0.0418,-0.45542 -0.21394,-0.78351 -0.64613,-0.82317 -0.20447,-0.0188 -0.36844,0.0318 -0.48728,0.15206 -0.10783,0.10254 -0.15354,0.1921 -0.23996,0.47004 l -0.0725,0.22766 c -0.0792,0.25047 -0.0792,0.25047 -0.13338,0.32985 -0.0558,0.098 -0.15899,0.14943 -0.26123,0.14004 -0.19052,-0.0174 -0.30444,-0.20602 -0.28098,-0.46161 0.0162,-0.17659 0.0898,-0.3151 0.22726,-0.43371 0.11162,-0.0929 0.20926,-0.13544 0.42986,-0.19017 l 0.0149,-0.16265 z m 1.94973,-2.09447 c 0.29903,0.21397 0.39961,0.39666 0.35072,0.63435 -0.0752,0.36568 -0.45592,0.52558 -0.99072,0.41557 -0.55766,-0.11471 -0.87726,-0.41391 -0.80768,-0.75216 0.0282,-0.13714 0.11665,-0.24281 0.18978,-0.22776 0.0138,0.003 0.0265,0.0102 0.0492,0.0387 0.0718,0.091 0.11377,0.11869 0.19146,0.13467 0.15084,0.031 0.27948,-0.0616 0.31238,-0.2216 0.0339,-0.16455 -0.0706,-0.30516 -0.25345,-0.34277 -0.31084,-0.0639 -0.60695,0.19437 -0.69064,0.60118 -0.12223,0.59422 0.27484,1.11899 0.96049,1.26003 0.64907,0.13353 1.17698,-0.16272 1.29355,-0.72966 0.0837,-0.40682 -0.0557,-0.6785 -0.49987,-0.97471 z m 1.37454,-2.00202 0.24489,-0.81392 -0.1898,-0.0651 -0.0379,0.11035 c -0.0967,0.25298 -0.13077,0.26595 -0.41767,0.16746 l -1.54484,-0.53034 -0.23631,0.84647 0.18979,0.0651 0.0773,-0.22509 c 0.062,-0.16621 0.096,-0.1792 0.28585,-0.11403 l 0.5429,0.18637 c 0.25158,0.0864 0.39256,0.16437 0.51108,0.27907 0.1668,0.16087 0.21654,0.37531 0.1423,0.59159 -0.047,0.13682 -0.13492,0.23492 -0.24289,0.26199 -0.10356,0.0286 -0.15074,0.0223 -0.3935,-0.0611 l -1.34621,-0.46215 -0.21662,0.78909 0.18979,0.0651 0.0575,-0.16772 c 0.062,-0.16621 0.0961,-0.17919 0.28585,-0.11403 l 0.95338,0.3273 c 0.22511,0.0773 0.33268,0.0945 0.45693,0.0631 0.22188,-0.0571 0.39614,-0.23407 0.48704,-0.4989 0.10001,-0.29131 0.0505,-0.53525 -0.16526,-0.82644 z m 0.33417,-3.341194 c -0.62505,-0.315174 -1.24444,-0.179574 -1.49739,0.330484 -0.26539,0.53515 -3.5e-4,1.16664 0.62677,1.47764 0.5895,0.29233 1.17117,0.10677 1.45106,-0.45764 0.19903,-0.40136 0.14145,-0.77892 -0.17064,-1.14731 l -0.15199,0.10698 c 0.23692,0.33106 0.27526,0.56885 0.13634,0.84897 -0.10573,0.21322 -0.27025,0.32436 -0.51229,0.33977 -0.16275,0.013 -0.32566,-0.0261 -0.55352,-0.14428 z m -0.84946,1.261254 c -0.12959,-0.0643 -0.21329,-0.12661 -0.30961,-0.22647 -0.20732,-0.21219 -0.26221,-0.40611 -0.16059,-0.61097 0.1244,-0.25085 0.42891,-0.308196 0.76756,-0.14026 0.11706,0.058 0.13185,0.11226 0.0655,0.24606 z m -0.56968,-3.496913 -0.41072,0.761103 0.17062,0.105619 0.12035,-0.194436 c 0.0948,-0.144361 0.13093,-0.149465 0.30157,-0.04374 l 2.02372,1.252598 0.18649,0.11544 c 0.0571,0.0408 0.0784,0.05949 0.0885,0.08766 0.0185,0.0499 -0.0123,0.135097 -0.11392,0.308177 l -0.0172,0.02778 0.14285,0.0884 0.63613,-1.027757 -0.14286,-0.08843 -0.0172,0.02778 c -0.17249,0.260947 -0.21444,0.284383 -0.35729,0.195967 l -0.17459,-0.10806 z m 3.29945,-1.277298 c -0.23298,-0.179342 -0.38262,-0.229759 -0.55392,-0.190843 -0.19379,0.04513 -0.38134,0.189357 -0.56353,0.426025 -0.32168,0.417856 -0.35913,0.87195 -0.0892,1.079766 0.13681,0.105318 0.29103,0.08859 0.39067,-0.04081 0.0911,-0.118339 0.0761,-0.259466 -0.0348,-0.344876 -0.0481,-0.03702 -0.11408,-0.05837 -0.19431,-0.06125 -0.043,0.0021 -0.0532,4.62e-4 -0.0717,-0.01398 -0.0739,-0.05689 -0.0262,-0.256149 0.10999,-0.433588 0.0911,-0.118328 0.22771,-0.219291 0.32872,-0.235754 0.11319,-0.02513 0.22193,0.01774 0.38834,0.145826 l 0.14422,0.111017 c -0.22951,0.435824 -0.29386,0.580623 -0.36309,0.815911 -0.12933,0.412805 -0.0759,0.69536 0.16069,0.877556 0.26626,0.204956 0.59207,0.12598 0.84543,-0.203106 0.19642,-0.255156 0.26938,-0.564126 0.20319,-0.86832 0.23414,0.08602 0.37927,0.05051 0.51306,-0.123291 0.1281,-0.166406 0.15466,-0.422755 0.0474,-0.505309 -0.0258,-0.01997 -0.0558,-0.01937 -0.0728,0.0032 -0.0114,0.01475 -0.019,0.03239 -0.0279,0.06687 -0.0177,0.06887 -0.031,0.09388 -0.0538,0.12346 -0.0797,0.103499 -0.17473,0.08929 -0.36332,-0.05591 z m 0.18349,0.6949 c 0.22188,0.170805 0.2651,0.221755 0.31285,0.35863 0.0657,0.19777 0.03,0.435351 -0.0953,0.598046 -0.13095,0.170101 -0.34692,0.198196 -0.51338,0.06971 -0.15531,-0.119555 -0.20646,-0.282613 -0.15883,-0.505104 0.0365,-0.154496 0.11053,-0.32717 0.28449,-0.652612 z m 3.21006,-6.364572 -0.13735,0.104601 0.0212,0.335844 c -0.30543,-0.03126 -0.60718,0.05775 -0.87073,0.258584 -0.49,0.373308 -0.57822,0.927453 -0.22188,1.395181 0.30827,0.404617 0.66144,0.452346 1.31458,0.177676 l 0.42052,-0.179576 c 0.32844,-0.138745 0.36008,-0.151105 0.48329,-0.151089 0.17641,5.58e-4 0.32912,0.07778 0.43942,0.222558 0.11315,0.148476 0.15077,0.313399 0.11862,0.502176 -0.0433,0.197258 -0.1347,0.331432 -0.33887,0.486971 -0.27469,0.209283 -0.53648,0.273795 -0.85801,0.213675 -0.286,-0.05199 -0.4997,-0.170759 -0.77314,-0.414178 l -0.15963,0.121594 0.82086,1.046629 0.14477,-0.110299 -0.0253,-0.379683 c 0.40425,0.01464 0.66499,-0.06664 0.99165,-0.315499 0.54567,-0.415729 0.65139,-1.000814 0.27243,-1.498231 -0.17817,-0.233859 -0.39947,-0.370325 -0.65542,-0.398266 -0.17375,-0.02012 -0.36662,0.027 -0.72014,0.178992 l -0.47356,0.202381 c -0.39542,0.166326 -0.66163,0.140301 -0.83414,-0.08611 -0.19796,-0.259849 -0.12217,-0.599217 0.1934,-0.839612 0.25985,-0.197969 0.55629,-0.247807 0.86597,-0.149356 0.22359,0.07018 0.41291,0.172361 0.60168,0.327736 l 0.15962,-0.121594 z m 4.10963,1.52219 0.72387,-0.44547 -0.0985,-0.174822 -0.10164,0.05732 c -0.24037,0.124754 -0.27445,0.111806 -0.42338,-0.152425 l -0.80195,-1.422911 -0.7391,0.475482 0.0985,0.174822 0.20734,-0.116841 c 0.15677,-0.08301 0.19085,-0.07006 0.28937,0.104752 l 0.28183,0.50005 c 0.1306,0.231731 0.18411,0.383706 0.19646,0.548161 0.0177,0.231073 -0.0876,0.424356 -0.28681,0.53663 -0.12604,0.07098 -0.25693,0.08589 -0.35562,0.03433 -0.0964,-0.04744 -0.12743,-0.08353 -0.25345,-0.307123 l -0.69884,-1.239967 -0.68625,0.445694 0.0985,0.174821 0.15449,-0.08703 c 0.15677,-0.08301 0.19086,-0.07007 0.28937,0.104742 l 0.49492,0.878135 c 0.11684,0.20734 0.18583,0.291677 0.29951,0.350815 0.2037,0.10482 0.45154,0.08834 0.69547,-0.04915 0.26832,-0.151226 0.39346,-0.366389 0.4257,-0.727391 z m 0.90195,-2.870188 -0.72964,0.349329 0.075,0.186136 0.15582,-0.06278 c 0.16624,-0.06193 0.19835,-0.04466 0.27333,0.141436 l 0.76914,1.90887 0.0837,0.207777 c 0.02,0.0623 0.0262,0.09002 0.0176,0.11868 -0.0146,0.05115 -0.0899,0.101612 -0.27426,0.180943 l -0.0174,0.0065 0.0628,0.155834 1.12541,-0.453458 -0.0628,-0.155824 -0.0476,0.01916 c -0.2935,0.108243 -0.34118,0.102272 -0.40397,-0.05357 l -0.0768,-0.190453 -0.25289,-0.627632 c 0.244,0.193496 0.44426,0.228519 0.71264,0.120392 0.26403,-0.106391 0.43511,-0.306136 0.50548,-0.581015 0.0678,-0.268816 0.0462,-0.57206 -0.0672,-0.853414 -0.11339,-0.281346 -0.30633,-0.510507 -0.55019,-0.653744 -0.24388,-0.143245 -0.48485,-0.166896 -0.72724,-0.06924 -0.26837,0.108115 -0.4005,0.29218 -0.44735,0.612934 z m 0.58744,-0.04051 c 0.29868,-0.120288 0.59216,0.108566 0.79621,0.614999 0.22498,0.55838 0.17921,0.944116 -0.1325,1.069694 -0.31165,0.125561 -0.63982,-0.114508 -0.84039,-0.612284 -0.21801,-0.541068 -0.15225,-0.939866 0.17668,-1.072409 z m 3.71176,-0.183098 c -0.1793,-0.676669 -0.69193,-1.049826 -1.2413,-0.900333 -0.57638,0.156805 -0.87263,0.7743 -0.68884,1.449746 0.17278,0.634911 0.69773,0.946673 1.30562,0.781253 0.43229,-0.117605 0.67639,-0.411362 0.7446,-0.889387 l -0.18088,-0.04265 c -0.0903,0.396968 -0.24263,0.583515 -0.54432,0.665619 -0.22965,0.06253 -0.422,0.01323 -0.59421,-0.157501 -0.11781,-0.113041 -0.19673,-0.260833 -0.25961,-0.509722 z m -1.50714,0.202121 c -0.038,-0.139596 -0.0469,-0.243565 -0.0362,-0.381894 0.021,-0.295901 0.12959,-0.465704 0.35024,-0.525741 0.27018,-0.07353 0.51523,0.116121 0.61449,0.480854 0.0343,0.126082 0.004,0.173124 -0.14051,0.212341 z m 2.55712,-1.533003 -0.80716,0.182736 0.0321,0.198075 0.18884,-0.03079 c 0.17577,-0.0239 0.20331,1.8e-4 0.23539,0.19826 l 0.17831,1.100983 0.0347,0.21656 c 0.007,0.06983 0.007,0.09821 -0.008,0.124256 -0.0255,0.04664 -0.1147,0.07998 -0.31202,0.116725 l -0.0185,0.003 0.0265,0.165888 1.22998,-0.199111 -0.0265,-0.165888 -0.0829,0.01376 c -0.31012,0.04091 -0.35533,0.02449 -0.38219,-0.141395 l -0.0328,-0.202699 -0.007,-0.04611 c -0.12066,-0.774673 0.0602,-1.40908 0.41656,-1.485685 -0.0526,0.08411 -0.0635,0.133201 -0.0493,0.220722 0.0239,0.147403 0.14698,0.236207 0.29439,0.212343 0.1705,-0.02719 0.26087,-0.169885 0.23104,-0.354152 -0.037,-0.225658 -0.21706,-0.347781 -0.4612,-0.30824 -0.2902,0.04717 -0.50169,0.317607 -0.58732,0.752217 z m 2.42106,-0.283733 -0.87096,0.117339 0.0151,0.200088 0.23733,-0.01787 c 0.17719,-0.0086 0.20255,0.01746 0.21763,0.217603 l 0.0837,1.11219 0.0164,0.218715 c 8.3e-4,0.07008 -0.002,0.09844 -0.0188,0.123097 -0.0294,0.04436 -0.11643,0.06962 -0.31619,0.08934 l -0.0325,0.0026 0.0126,0.167526 1.20526,-0.09077 -0.0126,-0.167525 -0.0326,0.0026 c -0.31248,0.01418 -0.35611,-0.0059 -0.36874,-0.173468 l -0.0154,-0.204758 z m -0.30598,-1.142238 c -0.14894,0.011 -0.26078,0.14131 -0.24957,0.29023 0.011,0.14894 0.14132,0.260784 0.28558,0.24992 0.15356,-0.01156 0.26544,-0.141667 0.25422,-0.290576 -0.011,-0.148949 -0.14131,-0.260795 -0.29023,-0.249574 z m 2.23522,1.023887 c -0.57395,-0.0082 -1.02444,0.494195 -1.0337,1.147464 -0.009,0.639279 0.43162,1.158902 0.99157,1.16684 0.55994,0.0079 1.01517,-0.499003 1.0243,-1.14294 0.009,-0.63928 -0.43156,-1.163568 -0.98217,-1.171364 z m -0.003,0.200649 c 0.32664,0.0046 0.50379,0.347838 0.49507,0.963782 -0.009,0.620605 -0.19554,0.953993 -0.53151,0.949226 -0.33596,-0.0047 -0.51318,-0.343305 -0.50446,-0.959239 0.009,-0.634603 0.19094,-0.958725 0.5409,-0.953769 z m 2.35299,0.01909 -0.82631,-0.046 -0.0236,0.199278 0.19001,0.02247 c 0.17555,0.02542 0.19545,0.05604 0.17188,0.255282 l -0.13095,1.107612 -0.0257,0.217809 c -0.0129,0.06898 -0.0208,0.09627 -0.0421,0.117211 -0.0373,0.03792 -0.13225,0.0455 -0.33207,0.02655 l -0.0186,-0.0024 -0.0197,0.166842 1.23738,0.146287 0.0197,-0.166832 -0.0834,-0.0099 c -0.30941,-0.04595 -0.34839,-0.07408 -0.32866,-0.240918 l 0.0241,-0.203912 0.005,-0.04632 c 0.0967,-0.778036 0.44488,-1.338361 0.80856,-1.314159 -0.0737,0.0665 -0.0977,0.110595 -0.10808,0.198685 -0.0176,0.148302 0.0765,0.267487 0.22476,0.28502 0.17146,0.02025 0.29748,-0.09174 0.31941,-0.277077 0.0268,-0.227086 -0.1132,-0.394017 -0.35882,-0.423058 -0.29196,-0.03448 -0.56961,0.167663 -0.77132,0.561998 z m 3.95164,3.096249 0.78689,0.203032 0.0579,-0.192135 -0.0804,-0.02426 c -0.25065,-0.09016 -0.26491,-0.123701 -0.17873,-0.409669 l 0.83624,-2.774725 -0.89056,-0.214785 -0.0579,0.192135 0.26362,0.07944 c 0.16845,0.05562 0.18271,0.08918 0.1248,0.281315 l -0.30434,1.009807 c -0.0966,-0.277703 -0.2578,-0.43837 -0.51696,-0.516477 -0.5049,-0.152167 -1.03594,0.219089 -1.22985,0.862473 -0.19122,0.634478 0.0436,1.197531 0.56194,1.353737 0.28149,0.08483 0.50998,0.02208 0.73375,-0.202939 z m 0.0572,-2.098078 c 0.1832,0.05525 0.31705,0.241774 0.33554,0.471543 0.0174,0.151583 -0.0107,0.342823 -0.0767,0.561764 -0.15756,0.52278 -0.46409,0.795942 -0.7858,0.698993 -0.31724,-0.09561 -0.41603,-0.44707 -0.26655,-0.943032 0.0808,-0.268096 0.1682,-0.461075 0.27072,-0.591022 0.13656,-0.178178 0.33959,-0.253463 0.52278,-0.198246 z m 3.27475,2.264832 c 0.28518,-0.639287 0.12036,-1.25156 -0.40113,-1.480025 -0.54713,-0.239709 -1.16534,0.05498 -1.44624,0.696144 -0.26405,0.60269 -0.0511,1.174907 0.52594,1.427718 0.41034,0.179774 0.78474,0.104347 1.1379,-0.22495 l -0.11401,-0.146757 c -0.31945,0.252347 -0.55516,0.301923 -0.84154,0.176497 -0.218,-0.0955 -0.33682,-0.254558 -0.36369,-0.495602 -0.0209,-0.161917 0.0106,-0.326526 0.11786,-0.559749 z m -1.30012,-0.788678 c 0.0581,-0.132519 0.11635,-0.219058 0.21153,-0.320018 0.20212,-0.217131 0.39322,-0.281171 0.60266,-0.189404 0.25647,0.112363 0.3282,0.413812 0.17647,0.760051 -0.0524,0.119678 -0.10589,0.137018 -0.24268,0.0771 z m 4.1288,-0.03712 0.0781,0.05126 c 0.2198,0.149877 0.28624,0.210234 0.29184,0.269737 8e-5,0.05049 -0.007,0.06215 -0.13537,0.257244 l -1.219,1.856973 c -0.12804,0.195061 -0.13573,0.206765 -0.18219,0.226507 -0.0568,0.01856 -0.14118,-0.01454 -0.36354,-0.160498 l -0.0781,-0.05126 -0.12036,0.183357 1.2913,0.847668 0.12036,-0.183357 -0.0781,-0.05126 c -0.21847,-0.143411 -0.2849,-0.203768 -0.28795,-0.267168 -8e-5,-0.05049 0.005,-0.05825 0.13538,-0.257244 l 1.21899,-1.856974 c 0.13061,-0.198969 0.13574,-0.206765 0.18219,-0.226517 0.0569,-0.01856 0.13473,0.01586 0.35965,0.15794 l 0.0781,0.05126 0.12037,-0.183358 -1.29131,-0.847667 z m 1.88358,2.522474 -0.65122,-0.479932 -0.12906,0.153664 0.12865,0.108042 c 0.13279,0.117625 0.13264,0.154076 0.004,0.307737 l -0.71732,0.854052 -0.072,0.08575 -0.0691,0.0822 c -0.0486,0.05061 -0.0702,0.06903 -0.0995,0.07489 -0.052,0.01141 -0.13193,-0.0316 -0.28858,-0.15707 l -0.0143,-0.01201 -0.10805,0.12864 0.90409,0.759352 0.10804,-0.128648 -0.0143,-0.01201 c -0.23342,-0.208235 -0.25057,-0.253112 -0.14256,-0.381756 l 0.13206,-0.15723 0.31214,-0.371643 c 0.14707,-0.175091 0.30715,-0.31489 0.41548,-0.364063 0.21012,-0.09774 0.46391,-0.07381 0.61761,0.05557 0.093,0.07803 0.1581,0.218098 0.14871,0.338153 -0.0125,0.123653 -0.0775,0.251856 -0.22152,0.423381 l -0.48623,0.578903 -0.14106,0.167949 c -0.0486,0.05062 -0.0702,0.06903 -0.0995,0.0749 -0.052,0.01141 -0.13549,-0.03453 -0.29215,-0.160069 l -0.0143,-0.01201 -0.10805,0.128649 0.90408,0.759344 0.10805,-0.12864 -0.0143,-0.01201 c -0.22985,-0.205246 -0.247,-0.250124 -0.13891,-0.378769 l 0.13206,-0.15723 0.47121,-0.56104 c 0.2161,-0.257288 0.25941,-0.330609 0.29713,-0.506136 0.0548,-0.246559 -0.0369,-0.500245 -0.25131,-0.680333 -0.23228,-0.195096 -0.49741,-0.234957 -0.85273,-0.131175 z m 0.96153,3.379584 c -0.16943,-0.192859 -0.17541,-0.206353 -0.18899,-0.269746 -0.008,-0.03671 0.014,-0.08854 0.0519,-0.123114 0.10348,-0.09435 0.23318,-0.04213 0.45069,0.182785 0.30237,0.317947 0.35642,0.363394 0.51503,0.433528 0.28173,0.122086 0.56482,0.07246 0.79247,-0.135002 0.13797,-0.125739 0.19592,-0.235362 0.22487,-0.432219 0.11552,0.002 0.16452,0.01426 0.18965,0.04181 0.0157,0.01727 0.0143,0.03706 -0.0169,0.07854 -0.0702,0.08923 -0.0648,0.185285 0.0138,0.271525 0.0817,0.08969 0.21388,0.08921 0.30702,0.0044 0.11727,-0.106908 0.11519,-0.275443 -0.007,-0.409968 -0.10057,-0.110373 -0.19165,-0.141029 -0.48112,-0.167677 -0.035,-0.23294 -0.10156,-0.374687 -0.25869,-0.547151 -0.37405,-0.410466 -0.84688,-0.472056 -1.19181,-0.157721 -0.20351,0.185452 -0.27539,0.45299 -0.19817,0.710939 -0.26234,-0.183958 -0.45382,-0.186239 -0.64353,-0.01336 -0.15177,0.138308 -0.17859,0.28902 -0.086,0.501428 -0.27421,-0.141563 -0.47544,-0.147595 -0.61687,-0.01872 -0.10347,0.09435 -0.13718,0.251299 -0.0952,0.415105 0.0536,0.19739 0.17688,0.388104 0.40321,0.636451 0.52492,0.576029 0.96863,0.695719 1.33081,0.365679 0.17245,-0.157166 0.23814,-0.362228 0.17672,-0.533556 -0.0504,-0.124566 -0.13717,-0.247516 -0.35092,-0.48206 z m 1.44099,-0.940655 c 0.19489,0.213856 0.15655,0.469745 -0.11246,0.714916 -0.26905,0.245176 -0.5506,0.261838 -0.74863,0.04456 -0.19488,-0.213857 -0.15533,-0.496116 0.10334,-0.731864 0.27249,-0.248321 0.54715,-0.258693 0.75776,-0.02757 z m -1.58046,1.383439 c 0.2609,0.286292 0.27975,0.306981 0.31686,0.361556 0.11504,0.154004 0.11465,0.305932 0.004,0.406521 -0.19661,0.179162 -0.51475,0.05869 -0.86366,-0.324182 -0.26718,-0.293189 -0.32868,-0.533881 -0.17345,-0.675336 0.11383,-0.103693 0.24629,-0.110745 0.48339,-0.02385 z m 3.06381,2.135008 c 0.57382,-0.400941 0.74806,-1.010591 0.41887,-1.475106 -0.34537,-0.48736 -1.02704,-0.553378 -1.59817,-0.148637 -0.53686,0.380453 -0.64921,0.980578 -0.28496,1.494592 0.25904,0.365517 0.61877,0.493802 1.09113,0.393579 l -0.0221,-0.184534 c -0.40374,0.05215 -0.63135,-0.0273 -0.81214,-0.282405 -0.13761,-0.194186 -0.15749,-0.391731 -0.0563,-0.612141 0.0657,-0.149492 0.17733,-0.27439 0.38944,-0.418985 z m -0.70782,-1.345855 c 0.11802,-0.08368 0.21259,-0.127786 0.34619,-0.165257 0.28511,-0.08191 0.48187,-0.03838 0.61409,0.14822 0.16189,0.228449 0.0681,0.52374 -0.24038,0.742322 -0.10662,0.0755 -0.16136,0.06286 -0.2477,-0.05894 z m 2.3486,1.941141 -0.42,-0.691398 -0.17776,0.09306 0.0779,0.148827 c 0.0781,0.159267 0.0641,0.192926 -0.11362,0.286017 l -0.98806,0.517392 -0.0992,0.05193 -0.0951,0.04983 c -0.0642,0.02828 -0.0912,0.03716 -0.12047,0.03151 -0.0523,-0.0095 -0.11002,-0.07935 -0.20726,-0.254947 l -0.008,-0.01658 -0.14882,0.07795 0.54771,1.045934 0.14882,-0.078 -0.008,-0.0166 c -0.13681,-0.2813 -0.13554,-0.329348 0.0133,-0.407288 l 0.1819,-0.09526 0.42995,-0.225151 c 0.20258,-0.106066 0.40376,-0.174555 0.52266,-0.178867 0.23151,-0.01058 0.45708,0.108322 0.55016,0.286091 0.0563,0.107481 0.0634,0.261822 0.009,0.369295 -0.0585,0.10965 -0.16736,0.20352 -0.36579,0.30744 l -0.66974,0.35071 -0.19429,0.10176 c -0.0642,0.0284 -0.0912,0.0372 -0.12048,0.0315 -0.0524,-0.009 -0.11222,-0.0835 -0.20942,-0.25908 l -0.008,-0.0166 -0.14882,0.0779 0.5477,1.04595 0.14882,-0.078 -0.008,-0.0166 c -0.13461,-0.27719 -0.13344,-0.32522 0.0154,-0.40315 l 0.1819,-0.0953 0.64907,-0.33988 c 0.29766,-0.15587 0.36557,-0.20723 0.46716,-0.35526 0.14432,-0.20727 0.15597,-0.476754 0.0261,-0.724806 -0.14071,-0.268717 -0.37082,-0.406349 -0.73893,-0.445366 z m 1.32462,2.883725 -0.36445,-0.7997 -0.18715,0.0724 0.0859,0.22197 c 0.0596,0.16706 0.0419,0.19893 -0.1452,0.27134 l -1.0402,0.40245 -0.20454,0.0792 c -0.0669,0.0209 -0.0948,0.0267 -0.12326,0.0177 -0.051,-0.0153 -0.1004,-0.0913 -0.17713,-0.27674 l -0.0114,-0.0305 -0.15669,0.0606 0.43613,1.12723 0.15669,-0.0606 -0.0114,-0.0305 c -0.10411,-0.29497 -0.0975,-0.34255 0.0592,-0.40317 l 0.1915,-0.0741 z m 1.00457,-0.62384 c -0.0539,-0.13928 -0.21082,-0.20866 -0.3501,-0.15477 -0.13927,0.0539 -0.20865,0.21083 -0.15645,0.34575 0.0556,0.14362 0.21252,0.213 0.35178,0.15912 0.13928,-0.0539 0.20865,-0.21083 0.15477,-0.3501 z m -1.22408,3.73885 c 0.67614,-0.18124 1.04782,-0.69495 0.89674,-1.24388 -0.15846,-0.57592 -0.77681,-0.8704 -1.45172,-0.68466 -0.63441,0.17462 -0.94466,0.70044 -0.77749,1.30786 0.11887,0.43195 0.41332,0.67521 0.89153,0.74204 l 0.0421,-0.181 c -0.39722,-0.0891 -0.58421,-0.24095 -0.66717,-0.54241 -0.0631,-0.22948 -0.0145,-0.42195 0.15578,-0.59466 0.11269,-0.11814 0.26027,-0.19747 0.50897,-0.26108 z m -0.20639,-1.50656 c 0.13947,-0.0384 0.24342,-0.0476 0.38178,-0.0373 0.29597,0.0202 0.46608,0.12826 0.52676,0.34873 0.0743,0.26996 -0.11464,0.51557 -0.47908,0.61588 -0.126,0.0346 -0.17312,0.004 -0.21276,-0.1399 z m 1.53071,2.57969 -0.17588,-0.80869 -0.1984,0.0301 0.0288,0.18915 c 0.0219,0.17605 -0.002,0.20331 -0.20023,0.23371 l -1.10245,0.16903 -0.21688,0.0328 c -0.07,0.006 -0.0983,0.006 -0.12416,-0.009 -0.0465,-0.0259 -0.0791,-0.11535 -0.11414,-0.31299 l -0.003,-0.0185 -0.16605,0.0255 0.18884,1.23161 0.16605,-0.0255 -0.0127,-0.083 c -0.0379,-0.3105 -0.0215,-0.35551 0.14461,-0.38097 l 0.20301,-0.0308 0.0462,-0.007 c 0.77569,-0.11394 1.40852,0.0721 1.48213,0.42903 -0.0837,-0.0533 -0.13265,-0.0646 -0.2203,-0.0512 -0.14757,0.0229 -0.23744,0.14499 -0.21481,0.2926 0.0262,0.17067 0.16769,0.26229 0.35219,0.23401 0.22597,-0.035 0.34959,-0.21412 0.31212,-0.45861 -0.0442,-0.29065 -0.31338,-0.50433 -0.74726,-0.59362 z m 0.24237,2.35081 -0.10206,-0.87288 -0.20033,0.0116 0.0138,0.2376 c 0.006,0.1773 -0.0209,0.20222 -0.22132,0.21384 l -1.11347,0.0645 -0.11178,0.007 -0.10717,0.006 c -0.0655,-9.2e-4 -0.0984,-0.004 -0.12275,-0.0209 -0.0439,-0.0301 -0.0676,-0.11762 -0.0839,-0.31767 l -0.002,-0.0327 -0.16772,0.01 0.07,1.20664 0.16772,-0.01 -0.002,-0.0327 c -0.009,-0.31268 0.0121,-0.35597 0.1798,-0.36569 l 0.20499,-0.0119 z m 0.28796,-0.59634 0.0111,0.19101 0.49487,0.71454 c 0.0506,0.0672 0.12322,0.10972 0.18844,0.10594 0.0932,-0.005 0.15902,-0.0793 0.15361,-0.17252 -0.005,-0.0745 -0.0298,-0.11046 -0.15794,-0.22456 z m -1.00281,3.4634 c 0.29364,0.0145 0.44533,-0.0294 0.56389,-0.15898 0.13347,-0.14757 0.20538,-0.37295 0.22017,-0.67126 0.0261,-0.52667 -0.20201,-0.92112 -0.54223,-0.93799 -0.17246,-0.009 -0.28963,0.0931 -0.29772,0.25624 -0.007,0.14914 0.0854,0.25654 0.22524,0.26348 0.0606,0.003 0.127,-0.0171 0.19455,-0.0605 0.0341,-0.0263 0.0436,-0.0305 0.0668,-0.0294 0.0933,0.005 0.16787,0.19521 0.15681,0.41893 -0.007,0.14915 -0.0621,0.30998 -0.13569,0.38109 -0.079,0.0848 -0.19245,0.1119 -0.40219,0.10152 l -0.18177,-0.009 c -0.0602,-0.48885 -0.0893,-0.64459 -0.16682,-0.87732 -0.1291,-0.4129 -0.33399,-0.61463 -0.63229,-0.62941 -0.33557,-0.0166 -0.55827,0.23398 -0.57883,0.6488 -0.0159,0.32161 0.10025,0.61705 0.32801,0.82926 -0.2414,0.0628 -0.3404,0.1747 -0.35125,0.39376 -0.0104,0.20974 0.11392,0.4355 0.24908,0.44221 0.0326,10e-4 0.0568,-0.0161 0.0582,-0.0438 0.001,-0.0187 -0.003,-0.0374 -0.0151,-0.0709 -0.0247,-0.0667 -0.028,-0.0948 -0.0258,-0.13217 0.006,-0.13051 0.0927,-0.17296 0.33038,-0.16117 z m -0.54692,-0.46632 c -0.27965,-0.0138 -0.34422,-0.0311 -0.46147,-0.11632 -0.16668,-0.12507 -0.27281,-0.34059 -0.26265,-0.54568 0.0106,-0.2144 0.17207,-0.36059 0.38181,-0.35019 0.19577,0.01 0.33074,0.11452 0.41845,0.32445 0.0581,0.14772 0.0957,0.33181 0.13823,0.69837 z"
         id="text240"
         style="font-size:4.66667px;line-height:1.2;font-family:C059;-inkscape-font-specification:'C059, ';letter-spacing:0.05px;fill:#054189;stroke-linejoin:bevel"
         aria-label="Escuela  Superior de Ingeniera" />
    </g>
  </g>
</svg>
